# xmcd
#
# Track frame offsets:
#	150
#	18507
#	36987
#	53572
#	73912
#	94147
#	106867
#	125235
#	137625
#	155847
#	170992
#	186565
#	205282
#	226272
#	243215
#	262050
#	277820
#	307150
#	323300
#
# Disc length: 4541 seconds
#
# Revision: 1
# Processed by: cddbd v1.5.1PL0 Copyright (c) Steve Scherf et al.
# Submitted via: audiograbber 1.83.01
#
DISCID=1d11bb13
DTITLE=Various Artist - Loverman Disc 2 of 2
DYEAR=1900
DGENRE=
TTITLE0=Marvin Gaye - Sexual Healing
TTITLE1=Isley Brothers - Between The Sheets
TTITLE2=Major Harris - Love Won't Let Me Wait
TTITLE3=Isaac Hayes - Walk on By
TTITLE4=Dramatics - In The Rain
TTITLE5=Al Green - Tired of Being Alone
TTITLE6=Freddie Jackson - Rock Me Tonight
TTITLE7=James Brown - It's A Man's Man's World
TTITLE8=Gap Band - Yearning For Your Love
TTITLE9=Persuaders - Thin Line Between Love and Hate
TTITLE10=Rose Royce - I Wanna Get Next To You
TTITLE11=Floaters - Float On
TTITLE12=Ralph Tresvant - Sensitivity
TTITLE13=Jodeci - Cry For You
TTITLE14=Ray Parker Junior - I Don't Think That Man Should Sleep Alone
TTITLE15=Lou Rawls - You'll Never Find A Love Like Mine
TTITLE16=Roy Ayers - Poo Poo La La
TTITLE17=Teddy Pendegrass - Turn Off The Lights
TTITLE18=Barry White - I'm Gonna Love You Just A Little More Baby
EXTD=
EXTT0=
EXTT1=
EXTT2=
EXTT3=
EXTT4=
EXTT5=
EXTT6=
EXTT7=
EXTT8=
EXTT9=
EXTT10=
EXTT11=
EXTT12=
EXTT13=
EXTT14=
EXTT15=
EXTT16=
EXTT17=
EXTT18=
PLAYORDER=
